<mxfile host="drawio-plugin" modified="2023-01-11T00:57:19.849Z" agent="5.0 (X11; Linux x86_64) AppleWebKit/537.36 (KHTML, like Gecko) Chrome/104.0.5112.102 Safari/537.36" etag="HlfF7hw4t9-LBufWbevz" version="20.5.3" type="embed"><diagram id="niHMEKWpn7_BpTSVb3m_" name="Page-1"><mxGraphModel dx="2438" dy="3068" grid="1" gridSize="10" guides="1" tooltips="1" connect="1" arrows="1" fold="1" page="0" pageScale="1" pageWidth="827" pageHeight="1169" background="none" math="0" shadow="0"><root><mxCell id="0"/><mxCell id="1" parent="0"/><mxCell id="node0" value="&lt;p style=&quot;margin:0px;margin-top:4px;text-align:center;&quot;&gt;&lt;b&gt;Conecta4&lt;/b&gt;&lt;/p&gt;&lt;hr size=&quot;1&quot;/&gt;&lt;p style=&quot;margin:0 0 0 4px;line-height:1.6;&quot;&gt;+ conectaCuatro(): void&lt;br/&gt;+ comprobarRangoDeFicha(int): boolean&lt;br/&gt;+ agregarFichaTablero(int): boolean&lt;br/&gt;+ fichasEnVertical(char): boolean&lt;br/&gt;+ fichasEnHorizontal(char): boolean&lt;br/&gt;+ diagonalDerechaInferiorAIzquierdaSuperior2(char): boolean&lt;br/&gt;+ comprobarGanador(): boolean&lt;br/&gt;+ tiempoPartida(): void&lt;br/&gt;+ turnosJugadores(): void&lt;br/&gt;+ imprimirTablero(): void&lt;br/&gt;+ resumenPartida(): void&lt;br/&gt;+ diagonalDerechaInferiorAIzquierdaSuperior1(char): boolean&lt;br/&gt;+ diagonalIzquierdaInferiorADerechaSuperior1(char): boolean&lt;br/&gt;+ opcionesJuego(Scanner): int&lt;br/&gt;+ tableroDeJuego(): void&lt;br/&gt;+ diagonalIzquierdaInferiorADerechaSuperior2(char): boolean&lt;br/&gt;+ comprobarColumnaLlena(int): boolean&lt;/p&gt;" style="verticalAlign=top;align=left;overflow=fill;fontSize=14;fontFamily=Helvetica;html=1;rounded=0;shadow=0;comic=0;labelBackgroundColor=none;strokeWidth=1;" parent="1" vertex="1"><mxGeometry x="-240" y="-1740" width="415" height="430" as="geometry"/></mxCell><mxCell id="2" value="&lt;span style=&quot;font-size: 14px; text-align: left;&quot;&gt;+ conectaCuatro(): void&lt;/span&gt;" style="html=1;" parent="1" vertex="1"><mxGeometry x="-900" y="-1500" width="160" height="50" as="geometry"/></mxCell><mxCell id="3" value="&lt;span style=&quot;font-size: 14px; text-align: left;&quot;&gt;+ comprobarRangoDeFicha(int): boolean&lt;/span&gt;" style="html=1;" parent="1" vertex="1"><mxGeometry x="-730" y="-780" width="290" height="50" as="geometry"/></mxCell><mxCell id="4" value="&lt;span style=&quot;font-size: 14px; text-align: left;&quot;&gt;+ agregarFichaTablero(int): boolean&lt;/span&gt;" style="html=1;" parent="1" vertex="1"><mxGeometry x="-730" y="-700" width="240" height="50" as="geometry"/></mxCell><mxCell id="5" value="&lt;span style=&quot;font-size: 14px; text-align: left;&quot;&gt;+ fichasEnVertical(char): boolean&lt;/span&gt;" style="html=1;" parent="1" vertex="1"><mxGeometry x="40" y="-720" width="230" height="50" as="geometry"/></mxCell><mxCell id="6" value="&lt;span style=&quot;font-size: 14px; text-align: left;&quot;&gt;+ fichasEnHorizontal(char): boolean&lt;/span&gt;" style="html=1;" parent="1" vertex="1"><mxGeometry x="40" y="-640" width="240" height="50" as="geometry"/></mxCell><mxCell id="7" value="Object" style="html=1;" parent="1" vertex="1"><mxGeometry x="-370" y="-790" width="110" height="50" as="geometry"/></mxCell><mxCell id="8" value="&lt;span style=&quot;font-size: 14px; text-align: left;&quot;&gt;+ comprobarGanador(): boolean&lt;/span&gt;" style="html=1;" parent="1" vertex="1"><mxGeometry x="-147.5" y="-1120" width="230" height="50" as="geometry"/></mxCell><mxCell id="9" value="&lt;span style=&quot;font-size: 14px; text-align: left;&quot;&gt;+ diagonalDerechaInferiorAIzquierdaSuperior2(char): boolean&lt;/span&gt;" style="html=1;" parent="1" vertex="1"><mxGeometry y="-920" width="410" height="50" as="geometry"/></mxCell><mxCell id="10" value="&lt;span style=&quot;font-size: 14px; text-align: left;&quot;&gt;+ resumenPartida(): void&lt;/span&gt;" style="html=1;" parent="1" vertex="1"><mxGeometry x="-720" y="-370" width="180" height="50" as="geometry"/></mxCell><mxCell id="11" value="&lt;span style=&quot;font-size: 14px; text-align: left;&quot;&gt;+ imprimirTablero(): void&lt;/span&gt;" style="html=1;" parent="1" vertex="1"><mxGeometry x="-720" y="-300" width="180" height="50" as="geometry"/></mxCell><mxCell id="12" value="&lt;span style=&quot;font-size: 14px; text-align: left;&quot;&gt;+ turnosJugadores(): void&lt;/span&gt;" style="html=1;" parent="1" vertex="1"><mxGeometry x="-720" y="-440" width="180" height="50" as="geometry"/></mxCell><mxCell id="13" value="&lt;span style=&quot;font-size: 14px; text-align: left;&quot;&gt;+ tiempoPartida(): void&lt;/span&gt;" style="html=1;" parent="1" vertex="1"><mxGeometry x="-720" y="-510" width="170" height="50" as="geometry"/></mxCell><mxCell id="14" value="&lt;span style=&quot;font-size: 14px; text-align: left;&quot;&gt;+ opcionesJuego(Scanner): int&lt;/span&gt;" style="html=1;" parent="1" vertex="1"><mxGeometry x="-900" y="-1280" width="210" height="50" as="geometry"/></mxCell><mxCell id="15" value="&lt;span style=&quot;font-size: 14px; text-align: left;&quot;&gt;+ diagonalDerechaInferiorAIzquierdaSuperior1(char): boolean&lt;/span&gt;" style="html=1;" parent="1" vertex="1"><mxGeometry y="-1020" width="410" height="50" as="geometry"/></mxCell><mxCell id="16" value="&lt;span style=&quot;font-size: 14px; text-align: left;&quot;&gt;+ diagonalIzquierdaInferiorADerechaSuperior1(char): boolean&lt;/span&gt;" style="html=1;" parent="1" vertex="1"><mxGeometry x="-470" y="-1020" width="410" height="50" as="geometry"/></mxCell><mxCell id="17" value="&lt;span style=&quot;font-size: 14px; text-align: left;&quot;&gt;+ diagonalIzquierdaInferiorADerechaSuperior2(char): boolean&lt;/span&gt;" style="html=1;" parent="1" vertex="1"><mxGeometry x="-470" y="-920" width="410" height="50" as="geometry"/></mxCell><mxCell id="18" value="&lt;span style=&quot;font-size: 14px; text-align: left;&quot;&gt;+ tableroDeJuego(): void&lt;/span&gt;" style="html=1;" parent="1" vertex="1"><mxGeometry x="-900" y="-1190" width="180" height="50" as="geometry"/></mxCell><mxCell id="19" value="&lt;span style=&quot;font-size: 14px; text-align: left;&quot;&gt;+ comprobarColumnaLlena(int): boolean&lt;/span&gt;" style="html=1;" parent="1" vertex="1"><mxGeometry x="-310" y="-680" width="290" height="50" as="geometry"/></mxCell></root></mxGraphModel></diagram></mxfile>